<svg id="Layer_1" data-name="Layer 1" xmlns="http://www.w3.org/2000/svg" viewBox="0 0 180.35 162.1"><defs><style>.cls-1{fill:#f8f8f8;}.cls-2{fill:#fbfbfb;}.cls-3{fill:#080808;}.cls-4{fill:#f9f9f9;}.cls-5{fill:#0e0e0e;}.cls-6{fill:#040404;}.cls-7{fill:#fafafa;}.cls-8{fill:#fcfcfc;}.cls-9{fill:#030303;}</style></defs><title>favicon</title><path d="M138,3.43c3,3.4,4.48,7.71,6.54,11.66,6.51,12.5,13,25,19.22,37.65,1.57,3.17,2.71,3.25,5.33,1,12.51-10.57,25.18-21,37.79-31.4,1.38-.25,3.21-1.59,3.26,1.35Q195,41.42,179.86,59.13c.08,3.49-2.32,5.8-4.34,8q-7.77,8.49-15.16,17.28a9.75,9.75,0,0,1-5.35,3c-4.27,5.93-10,7.72-17.2,7.16-7.44-.58-15,0-22.44-.13-2.33,0-3.84.69-4.57,2.91,0,.16-.18.29-.22.45C107.64,110,99.57,113.5,88,111.4a34.07,34.07,0,0,0-6-.05c-2.35-1.71-1.69-3.66-.29-5.49A31.42,31.42,0,0,0,85.48,99c5.39-13.25,12.19-25.81,18.82-38.44,5.94-11.32,11.64-22.76,17.38-34.18,3.06-6.09,6.68-11.87,9.56-18,1-2.24,2.94-3.52,4.76-4.93Z" transform="translate(-80.46 -3.43)"/><path d="M258.82,105.73c-.62,8.22-.48,16.52-2.89,24.53-7.64,18.41-21.17,29.91-40.64,34.06-28.54,6.07-56.81-11.25-65.1-39.63-.49-1.7-1-3.41-1.63-5.65l-31.5,24.76L116,142.73l37-47.45a3,3,0,0,1,1.77-1.89l3.25-4a9.28,9.28,0,0,1,2.39-5.15c5.71-6.79,11.94-13.13,17.43-20.1,1.34-1.7,3.23-2.2,5.14-2.74,9.52-11.65,22.18-8.68,34.07-6.49,12.69,2.34,22.75,9.76,30.89,19.79,2.31,2.84,2,4.27-1.21,6-4.26,2.25-8,6.4-12.44,7.12-5,.81-7.19-5.43-10.93-8.21-20.14-15-48-3.65-53.8,22a37.4,37.4,0,0,0,16.24,39,33.73,33.73,0,0,0,39.24-2c3.43-2.67,6.52-5.69,8.12-9.89.33-1.23,0-2.83,1.72-3.32a.67.67,0,0,0,.26-.73c0-3.06-2.4-1.66-3.65-1.67-10.14-.13-20.27,0-30.41-.13-1.58,0-3.84,1.12-4.53-1.64.16-5.43-.48-10.87.35-16.29a6,6,0,0,1,1.81-.61q28.65.06,57.31.17c1.16,4.07.06,8.24.53,11.56.33-3.33-.68-7.49.47-11.56C258,104.28,258.3,105.19,258.82,105.73Z" transform="translate(-80.46 -3.43)"/><path class="cls-1" d="M183,61.41a346.8,346.8,0,0,1-25,28l-3-2c8.2-9.51,16.08-19.3,24.85-28.3Z" transform="translate(-80.46 -3.43)"/><path class="cls-1" d="M154.75,93.39A2.11,2.11,0,0,1,153,95.28C152.45,93.6,152.85,92.79,154.75,93.39Z" transform="translate(-80.46 -3.43)"/><path class="cls-2" d="M258,101.43c-2.12,1.27-4.49,1-6.79,1H197c2.12-1.28,4.49-1,6.79-1Q230.9,101.42,258,101.43Z" transform="translate(-80.46 -3.43)"/><path class="cls-1" d="M234.86,125.4a5.35,5.35,0,0,1-1.72,3.32c-1.24-3-3.78-3.33-6.6-3.31-9.1,0-18.2,0-27.29-.5C211.12,125,223,123.25,234.86,125.4Z" transform="translate(-80.46 -3.43)"/><path class="cls-1" d="M196.84,121.86c1.67,1.63,3.76.9,5.65.91,9.91,0,19.82-.08,29.74,0,1.07,0,3.63-1.28,2.89,1.89-1.88-1.37-4.06-1.21-6.21-1.21-9.09,0-18.19,0-27.28,0-2.1,0-4.44.4-5.55-2.19C196.62,121.1,196.87,121.31,196.84,121.86Z" transform="translate(-80.46 -3.43)"/><path class="cls-3" d="M210.14,23.72l-3.26-1.35,9.9-8.55L218,15Z" transform="translate(-80.46 -3.43)"/><ellipse class="cls-4" cx="114.03" cy="109.99" rx="0.33" ry="9.49"/><path class="cls-5" d="M196.84,121.86a8.82,8.82,0,0,1-.76-.61c1-5.4-.48-10.92.79-16.3Z" transform="translate(-80.46 -3.43)"/><path class="cls-6" d="M257,104.5v10.72h-1V104.5Z" transform="translate(-80.46 -3.43)"/><path class="cls-7" d="M201.45,74.64h5.33v.5h-5.53Z" transform="translate(-80.46 -3.43)"/><path class="cls-4" d="M206.37,143.74a3.5,3.5,0,0,1-3.2.46C203.83,142.93,204.84,143.52,206.37,143.74Z" transform="translate(-80.46 -3.43)"/><path class="cls-8" d="M137.52,43.79c5,10.63,9.47,20.1,14,29.55,1,2.1.55,3-1.91,3q-12-.06-24,.06c-2.83,0-3-1-1.93-3.28C128.2,63.71,132.62,54.23,137.52,43.79Z" transform="translate(-80.46 -3.43)"/><path class="cls-7" d="M260.81,106.9v8.18h-.5V106.8Z" transform="translate(-80.46 -3.43)"/><ellipse class="cls-9" cx="122.99" cy="67.49" rx="4.6" ry="0.34"/><path class="cls-6" d="M206.75,147.66a5.25,5.25,0,0,1-5.24,0Z" transform="translate(-80.46 -3.43)"/></svg>